<svg width="24" height="24" viewBox="0 0 24 24" fill="none" xmlns="http://www.w3.org/2000/svg">
<path d="M9.18309 6.11697C7.8891 5.8571 6.54552 6.03115 5.36045 6.61215C4.17539 7.19315 3.21495 8.14869 2.62791 9.33078C2.04086 10.5129 1.85996 11.8555 2.11321 13.1508C2.36647 14.4461 3.03975 15.6218 4.02879 16.4957C5.01783 17.3697 6.26743 17.8931 7.58405 17.985C8.90068 18.0768 10.2109 17.732 11.3117 17.0039C12.4125 16.2758 13.2426 15.2051 13.6733 13.9575C14.104 12.7099 14.1113 11.3551 13.6941 10.103" stroke="#232527" stroke-width="2" stroke-linecap="round" stroke-linejoin="round"/>
<path d="M14.8131 17.8831C16.1085 18.1443 17.4538 17.9705 18.6403 17.3888C19.8268 16.8071 20.7881 15.85 21.3749 14.666C21.9618 13.482 22.1413 12.1374 21.8857 10.8409C21.6301 9.54446 20.9537 8.36862 19.9614 7.49596C18.9691 6.62329 17.7165 6.10261 16.398 6.01475C15.0795 5.92688 13.7688 6.27675 12.6695 7.01003C11.5702 7.74332 10.7437 8.819 10.3184 10.0701C9.89301 11.3212 9.89256 12.6777 10.3171 13.9291" stroke="#232527" stroke-width="2" stroke-linecap="round" stroke-linejoin="round"/>
</svg>
