<svg width="24" height="24" viewBox="0 0 24 24" fill="none" xmlns="http://www.w3.org/2000/svg">
<path d="M14 3V7C14 7.26522 14.1054 7.51957 14.2929 7.70711C14.4804 7.89464 14.7348 8 15 8H19" stroke="#232527" stroke-width="2" stroke-linecap="round" stroke-linejoin="round"/>
<path d="M17 21H7C6.46957 21 5.96086 20.7893 5.58579 20.4142C5.21071 20.0391 5 19.5304 5 19V5C5 4.46957 5.21071 3.96086 5.58579 3.58579C5.96086 3.21071 6.46957 3 7 3H14L19 8V19C19 19.5304 18.7893 20.0391 18.4142 20.4142C18.0391 20.7893 17.5304 21 17 21Z" stroke="#232527" stroke-width="2" stroke-linecap="round" stroke-linejoin="round"/>
<path d="M11.8 16.817L9.62799 17.955C9.56354 17.9885 9.49103 18.0035 9.41855 17.9982C9.34608 17.9929 9.2765 17.9676 9.21758 17.9251C9.15867 17.8826 9.11273 17.8245 9.0849 17.7574C9.05707 17.6903 9.04845 17.6167 9.05999 17.545L9.47499 15.134L7.71799 13.427C7.66555 13.3763 7.62842 13.3119 7.61084 13.2411C7.59325 13.1703 7.59593 13.096 7.61856 13.0266C7.64118 12.9573 7.68285 12.8957 7.73881 12.8489C7.79476 12.8021 7.86274 12.772 7.93499 12.762L10.363 12.41L11.449 10.217C11.4815 10.1517 11.5315 10.0967 11.5935 10.0583C11.6555 10.0199 11.727 9.99951 11.8 9.99951C11.8729 9.99951 11.9444 10.0199 12.0064 10.0583C12.0685 10.0967 12.1185 10.1517 12.151 10.217L13.237 12.41L15.665 12.762C15.737 12.7723 15.8047 12.8027 15.8604 12.8495C15.9162 12.8963 15.9576 12.9578 15.9802 13.027C16.0028 13.0962 16.0056 13.1703 15.9882 13.241C15.9708 13.3117 15.9341 13.3761 15.882 13.427L14.125 15.134L14.539 17.544C14.5514 17.6158 14.5434 17.6898 14.516 17.7573C14.4885 17.8249 14.4426 17.8834 14.3836 17.9262C14.3245 17.969 14.2547 17.9944 14.1819 17.9995C14.1092 18.0046 14.0364 17.9891 13.972 17.955L11.8 16.817Z" stroke="#232527" stroke-width="2" stroke-linecap="round" stroke-linejoin="round"/>
</svg>
