<svg width="24" height="24" viewBox="0 0 24 24" fill="none" xmlns="http://www.w3.org/2000/svg">
<path d="M3.06006 13.0005C3.30547 15.1944 4.34865 17.2216 5.9912 18.6965C7.63374 20.1714 9.76108 20.9912 11.9686 20.9999C14.1762 21.0087 16.3099 20.2058 17.9641 18.7439C19.6183 17.2821 20.6775 15.2632 20.9403 13.0714C21.2031 10.8795 20.6511 8.66751 19.3894 6.85606C18.1276 5.04461 16.2441 3.76006 14.0971 3.24673C11.95 2.73339 9.68922 3.02706 7.74457 4.0719C5.79993 5.11674 4.30712 6.83986 3.55006 8.91355" stroke="#232527" stroke-width="2" stroke-linecap="round" stroke-linejoin="round"/>
<path d="M3 4.00146V9.00147H8M11 12.0005C11 12.2657 11.1054 12.52 11.2929 12.7076C11.4804 12.8951 11.7348 13.0005 12 13.0005C12.2652 13.0005 12.5196 12.8951 12.7071 12.7076C12.8946 12.52 13 12.2657 13 12.0005C13 11.7352 12.8946 11.4809 12.7071 11.2934C12.5196 11.1058 12.2652 11.0005 12 11.0005C11.7348 11.0005 11.4804 11.1058 11.2929 11.2934C11.1054 11.4809 11 11.7352 11 12.0005Z" stroke="#232527" stroke-width="2" stroke-linecap="round" stroke-linejoin="round"/>
</svg>
